# xmcd
#
# Track frame offsets:
#	182
#	13570
#	28330
#	40700
#	54710
#	67072
#	77775
#	93560
#	111222
#	122900
#	139935
#	151942
#	164757
#
# Disc length: 2395 seconds
#
# Revision: 1
# Processed by: cddbd v1.5.1PL0 Copyright (c) Steve Scherf et al.
# Submitted via: audiograbber 1.83.01
#
DISCID=b709590d
DTITLE=Buddy and The Gostriders - The Ghosts are alive
DYEAR=1993
DGENRE=Country
TTITLE0=Buddy and The Gostriders: On the road again
TTITLE1=Buddy and The Gostriders: Lonesome on'ry and mean
TTITLE2=Buddy and The Gostriders: Speak of the devil
TTITLE3=Buddy and The Gostriders: The cheaters vows
TTITLE4=Buddy and The Gostriders: Turn it on, turn it up, turn me loose
TTITLE5=Buddy and The Gostriders: Prayers
TTITLE6=Buddy and The Gostriders: Walking on the moon
TTITLE7=Buddy and The Gostriders: Call me the breeze
TTITLE8=Buddy and The Gostriders: I'm a Honky Tonk man
TTITLE9=Buddy and The Gostriders: A rolling stone like me
TTITLE10=Buddy and The Gostriders: I'm a rambling man
TTITLE11=Buddy and The Gostriders: Under your spell again
TTITLE12=Buddy and The Gostriders: Louise
EXTD=
EXTT0=
EXTT1=
EXTT2=
EXTT3=
EXTT4=
EXTT5=
EXTT6=
EXTT7=
EXTT8=
EXTT9=
EXTT10=
EXTT11=
EXTT12=
PLAYORDER=
